<svg xmlns="http://www.w3.org/2000/svg" xmlns:xlink="http://www.w3.org/1999/xlink" fill="none" version="1.1" width="32" height="32" viewBox="0 0 32 32"><defs><linearGradient x1="0" y1="0.5000043511390686" x2="1" y2="0.5000043511390686" id="master_svg0_9_3"><stop offset="0%" stop-color="#1076FD" stop-opacity="1"/><stop offset="100%" stop-color="#FF05DD" stop-opacity="1"/></linearGradient></defs><g><g><rect x="0" y="0" width="32" height="32" rx="8" fill="#E9EBFE" fill-opacity="1"/></g><g><path d="M12.51995,20.558799999999998C12.51995,19.872500000000002,12.28815,19.3378,11.8246,18.9545C11.36945,18.5713,10.564530000000001,18.1747,9.40983,17.764699999999998C8.25514,17.3547,7.31116,16.9581,6.57788,16.5748C4.19263,15.33597,2.999999462842,13.633659999999999,3,11.46789C3.000000267473,10.38947,3.294997,9.44028,3.8849869999999997,8.62031C4.48341,7.79144,5.3262599999999996,7.14973,6.41353,6.695187C7.50082,6.231728,8.722940000000001,5.999999623662,10.07991,6.000000000000413C11.40319,6.000000366988,12.58737,6.249555,13.6325,6.748661C14.146,6.991909,14.6034,7.28596,15.0047,7.63081C15.274,7.43229,15.5639,7.25411,15.8744,7.09629C16.9617,6.543712,18.247,6.267419,19.7305,6.267419C21.9724,6.2674199999999995,23.7382,6.882393,25.0277,8.11234C26.3173,9.34228,26.9747,11.02676,27,13.1658C27,13.1658,27,26,27,26C27,26,22.5371,26,22.5371,26C22.5371,26,22.5371,13.07222,22.5371,13.07222C22.4866,10.94208,21.551,9.877040000000001,19.7305,9.877040000000001C18.811799999999998,9.877040000000001,18.1164,10.14442,17.644399999999997,10.67917C17.1724,11.21392,16.9364,12.08292,16.9364,13.28611C16.9364,13.28611,16.9364,16.4994,16.9364,16.4994C16.2021,15.56321,15.196,14.78005,13.9756,14.14598C13.5402,13.918520000000001,13.0471,13.691559999999999,12.49883,13.46466C12.49883,13.46466,12.49883,13.25938,12.49883,13.25938C12.49883,12.837489999999999,12.52367,12.43194,12.57331,12.04275C12.57331,12.04275,12.53261,12.04275,12.53261,12.04275C12.53261,11.24955,12.30081,10.63456,11.83726,10.197849999999999C11.38212,9.76113,10.762599999999999,9.54277,9.97875,9.54277C9.18649,9.54277,8.55856,9.72994,8.09501,10.10427C7.63987,10.46969,7.41232,10.93758,7.41232,11.508C7.41232,12.00713,7.66515,12.461680000000001,8.17085,12.87163C8.676590000000001,13.27272,9.565750000000001,13.69161,10.83848,14.12833C12.11116,14.55611,13.1563,15.01961,13.9739,15.51869C15.963,16.730800000000002,16.9575,18.401899999999998,16.9575,20.5321C16.9575,22.2344,16.3507,23.5713,15.137,24.5427C13.9233,25.5142,12.25866,25.9999,10.14313,25.9999C10.14313,25.9999,10.14313,22.4706,10.14313,22.4706C10.87642,22.4706,11.45374,22.3057,11.87515,21.9759C12.30501,21.6372,12.51995,21.1648,12.51995,20.558799999999998C12.51995,20.558799999999998,12.51995,20.558799999999998,12.51995,20.558799999999998Z" fill="url(#master_svg0_9_3)" fill-opacity="1"/></g></g></svg>