<svg xmlns="http://www.w3.org/2000/svg" xmlns:xlink="http://www.w3.org/1999/xlink" fill="none" version="1.1" width="64" height="64" viewBox="0 0 64 64"><defs><linearGradient x1="0" y1="0.5000043511390686" x2="1" y2="0.5000043511390686" id="master_svg0_12_976"><stop offset="0%" stop-color="#1076FD" stop-opacity="0.3700000047683716"/><stop offset="100%" stop-color="#FF05DD" stop-opacity="0.41999998688697815"/></linearGradient></defs><g><g><path d="M25.7999,42.4852C25.7999,40.906800000000004,25.2204,39.6768,24.0615,38.7953C22.9236,37.9139,20.9113,37.0018,18.0246,36.058800000000005C15.1378,35.1158,12.7779,34.2036,10.9447,33.3221C4.98156,30.4727,1.9999986571,26.5574,2,21.5761C2.000000668682,19.0958,2.737491,16.91263,4.21247,15.026720000000001C5.70852,13.1203,7.81564,11.64438,10.53382,10.59893C13.252,9.532975,16.307299999999998,8.999999134424,19.6998,9.00000000000095C23.008,9.000000844073,25.9684,9.573976,28.5812,10.72192C29.8649,11.28139,31.0084,11.957699999999999,32.0118,12.750869999999999C32.685,12.29426,33.409800000000004,11.88446,34.1861,11.52147C36.9043,10.25054,40.1176,9.615064,43.8261,9.615065C49.4311,9.615067,53.8455,11.0295,57.0693,13.85837C60.2932,16.68724,61.9368,20.5616,62,25.4813C62,25.4813,62,55,62,55C62,55,50.8428,55,50.8428,55C50.8428,55,50.8428,25.2661,50.8428,25.2661C50.7164,20.366799999999998,48.3775,17.917189999999998,43.8261,17.917189999999998C41.5294,17.917189999999998,39.791,18.532159999999998,38.611,19.7621C37.4311,20.992,36.8411,22.9907,36.8411,25.7581C36.8411,25.7581,36.8411,33.1486,36.8411,33.1486C35.0053,30.9954,32.4901,29.1941,29.439,27.7358C28.3506,27.2126,27.1177,26.6906,25.7471,26.1687C25.7471,26.1687,25.7471,25.6966,25.7471,25.6966C25.7471,24.7262,25.8092,23.7935,25.9333,22.8983C25.9333,22.8983,25.8315,22.8983,25.8315,22.8983C25.8315,21.073999999999998,25.252,19.6595,24.0931,18.65506C22.9553,17.65061,21.4065,17.14838,19.4469,17.14838C17.4662,17.14838,15.8964,17.57885,14.7375,18.439819999999997C13.5997,19.2803,13.0308,20.3564,13.0308,21.6684C13.0308,22.8164,13.6629,23.8619,14.9271,24.8047C16.191499999999998,25.7273,18.4144,26.6907,21.5962,27.6952C24.7779,28.6791,27.3907,29.7451,29.4347,30.893C34.4074,33.6809,36.8939,37.5244,36.8939,42.4237C36.8939,46.3391,35.3767,49.4139,32.3424,51.6483C29.3082,53.8827,25.1467,54.9999,19.8578,54.9999C19.8578,54.9999,19.8578,46.8823,19.8578,46.8823C21.691,46.8823,23.1344,46.503,24.1879,45.7446C25.2625,44.9656,25.7999,43.8791,25.7999,42.4852Z" fill="url(#master_svg0_12_976)" fill-opacity="1"/></g><g><rect x="0" y="0" width="64" height="64" rx="16" fill="#E9EBFE" fill-opacity="0"/></g></g></svg>